<svg width="119" height="135" viewBox="0 0 119 135" fill="none" xmlns="http://www.w3.org/2000/svg">
<g id="Group">
<path id="Vector" d="M108.088 96.9947C113.676 107.292 116.745 118.377 117.447 130.816C117.447 131.313 117.293 131.792 116.95 132.187C116.59 132.546 116.076 132.769 115.545 132.769H100.683C99.7407 132.769 98.9694 132.118 98.8151 131.227C98.6437 130.285 98.4894 129.308 98.318 128.332C97.6667 124.425 96.9982 120.399 95.6955 116.578C90.5189 101.415 81.4685 90.8782 68.7499 85.2584C67.8415 84.8815 67.3958 83.8878 67.6529 82.9454C69.8127 75.3725 70.2412 67.3541 68.9728 59.1815C68.7157 57.6738 68.4586 56.2346 68.1329 54.8468C67.91 53.8702 67.7386 53.5618 67.5844 52.808C67.1901 50.889 68.5785 49.21 70.4469 48.833C70.4469 48.833 71.2011 48.6103 71.2182 48.6103C73.9436 47.0683 76.2405 45.4578 78.8288 43.3675C85.8394 37.6964 91.0331 30.7574 94.3242 22.7219C94.8898 21.3684 95.4041 19.9806 95.8497 18.5414C96.1925 17.5476 96.4668 16.5025 96.7582 15.4574C97.5467 12.3734 97.9924 9.28939 98.4552 6.01693L98.7808 3.82387C98.9179 2.9158 99.7407 2.23047 100.649 2.23047H115.613C116.127 2.23047 116.625 2.4532 117.019 2.84727C117.362 3.20707 117.55 3.70393 117.499 4.2008C117.036 11.8937 115.716 19.0896 113.522 25.8059V25.8744C113.368 26.6283 113.145 27.3479 112.802 28.0503C107.677 42.408 98.558 54.5042 85.2566 64.6985C84.2967 65.4523 83.7311 66.566 83.7654 67.7825C83.7654 69.0161 84.3482 70.1126 85.3423 70.8322C94.8898 77.6855 102.329 86.235 108.14 96.9947H108.088Z" stroke="#F01920" stroke-width="3" stroke-miterlimit="10"/>
<path id="Vector_2" d="M60.3168 83.6136C58.0885 90.1928 54.6088 96.4636 49.9636 102.323C41.5989 112.894 30.9372 119.885 18.2872 123.106C15.6304 123.774 13.3163 124.202 11.1566 124.442C11.0366 124.494 10.9166 124.511 10.8481 124.511C9.49392 124.648 8.48261 124.716 7.47129 124.733H7.35129C4.59161 124.733 2.38044 122.472 2.38044 119.765V109.536C2.84324 107.515 4.52307 105.973 6.57998 105.664H6.61425C6.90564 105.664 7.16274 105.63 7.45414 105.596H7.55698C8.68828 105.51 9.78534 105.373 10.8138 105.219C10.8138 105.219 11.3452 105.15 11.4652 105.116C17.1902 104.174 22.0411 102.203 26.172 99.0336C32.6513 94.1163 37.3993 88.3424 40.2619 81.8831C40.4333 81.4891 40.8275 80.5467 40.8275 80.5467C42.5245 76.469 43.5358 71.8773 43.8272 66.9258C44.1528 60.7235 43.193 54.8297 40.9647 49.4498C40.8104 49.1243 40.6733 48.7816 40.5361 48.4732L40.2961 47.9249C38.5478 44.0185 35.9766 40.1464 32.6856 36.5142C27.4919 30.7574 20.327 26.7996 11.9622 25.0863L11.7223 25.052C11.5508 25.052 11.3965 25.0006 11.2594 24.9663C11.2594 24.9663 10.6424 24.8635 10.5224 24.8292C9.45964 24.675 8.24262 24.5209 6.97419 24.4352C4.38591 24.2467 2.36328 22.0708 2.36328 19.4837V9.90615C2.36328 7.16482 4.59161 4.9375 7.29987 4.9375C7.45414 4.9375 7.5913 4.9375 7.71129 4.9375C8.6369 5.02317 9.52822 5.12596 10.3853 5.22876C10.6252 5.26303 10.8309 5.28016 11.0366 5.3487C23.858 7.06202 35.2739 12.6646 44.7699 21.8995C52.0891 29.0098 57.3171 37.2852 60.3168 46.5371L60.3682 46.7085C61.2595 49.5526 61.9965 52.688 62.5279 56.0632C64.0192 65.6408 63.2993 74.8585 60.3682 83.4594L60.3168 83.6136Z" stroke="#F01920" stroke-width="3" stroke-miterlimit="10"/>
</g>
</svg>
